<?xml version="1.0" encoding="UTF-8" standalone="no"?>
<svg
   xmlns:dc="http://purl.org/dc/elements/1.1/"
   xmlns:cc="http://creativecommons.org/ns#"
   xmlns:rdf="http://www.w3.org/1999/02/22-rdf-syntax-ns#"
   xmlns:svg="http://www.w3.org/2000/svg"
   xmlns="http://www.w3.org/2000/svg"
   xmlns:sodipodi="http://sodipodi.sourceforge.net/DTD/sodipodi-0.dtd"
   xmlns:inkscape="http://www.inkscape.org/namespaces/inkscape"
   sodipodi:docname="bg-pattern-desktop.svg"
   inkscape:version="1.0 (4035a4fb49, 2020-05-01)"
   id="svg50"
   version="1.1"
   viewBox="0 0 210 297"
   height="297mm"
   width="210mm">
  <defs
     id="defs44">
    <clipPath
       id="clipPath83"
       clipPathUnits="userSpaceOnUse">
      <rect
         y="-16.214178"
         x="8.3574972"
         height="551.42859"
         width="194.28572"
         id="rect85"
         style="fill:#800000;stroke-width:0.999999" />
    </clipPath>
  </defs>
  <sodipodi:namedview
     inkscape:window-maximized="0"
     inkscape:window-y="0"
     inkscape:window-x="76"
     inkscape:window-height="728"
     inkscape:window-width="1274"
     showgrid="false"
     inkscape:document-rotation="0"
     inkscape:current-layer="layer1"
     inkscape:document-units="mm"
     inkscape:cy="411.36487"
     inkscape:cx="653.26798"
     inkscape:zoom="0.7"
     inkscape:pageshadow="2"
     inkscape:pageopacity="0.0"
     borderopacity="1.0"
     bordercolor="#666666"
     pagecolor="#ffffff"
     id="base" />
  <metadata
     id="metadata47">
    <rdf:RDF>
      <cc:Work
         rdf:about="">
        <dc:format>image/svg+xml</dc:format>
        <dc:type
           rdf:resource="http://purl.org/dc/dcmitype/StillImage" />
        <dc:title></dc:title>
      </cc:Work>
    </rdf:RDF>
  </metadata>
  <g
     id="layer1"
     inkscape:groupmode="layer"
     inkscape:label="Layer 1">
    <g
       clip-path="url(#clipPath83)"
       transform="matrix(0.26458333,0,0,0.26458333,139.9078,17.141192)"
       fill="none"
       fill-rule="evenodd"
       stroke="#9e96c6"
       id="g64">
      <path
         d="m -162.361,17.325 c -75.703,-23.693 -153.543,-63.212 -233.235,8.97 -79.693,72.182 -129.794,135.414 -97.44,217.227 32.354,81.814 164.422,30.855 202.794,103.977 38.373,73.122 -45.94,139.485 -9.591,204.563 36.35,65.078 64.3,106.787 181.115,65.409 C -1.902,576.092 -12.673,470.807 76.16,409.153 164.993,347.499 261.104,255.2 129.206,90.506 -2.692,-74.188 -86.659,41.02 -162.36,17.326 Z"
         id="path52" />
      <path
         d="m -152.895,55.249 c -61.583,-19.24 -124.905,-51.33 -189.734,7.283 -64.828,58.614 -105.585,109.959 -79.266,176.393 26.32,66.434 133.755,25.055 164.971,84.43 31.216,59.377 -37.372,113.266 -7.802,166.11 29.57,52.845 52.306,86.713 147.334,53.113 95.028,-33.6 86.267,-119.094 158.53,-169.158 C 113.403,323.356 191.588,248.408 84.291,114.673 -23.006,-19.062 -91.312,74.489 -152.895,55.249 Z"
         id="path54" />
      <path
         d="M -135.188,80.417 C -185.15,64.72 -236.522,38.535 -289.117,86.36 c -52.594,47.825 -85.66,89.72 -64.307,143.926 21.353,54.206 108.513,20.443 133.838,68.89 25.325,48.448 -30.32,92.418 -6.33,135.536 23.99,43.117 42.436,70.752 119.531,43.336 C -29.29,450.633 -36.398,380.875 22.229,340.026 80.856,299.176 144.287,238.023 57.238,128.904 -29.811,19.784 -85.227,96.116 -135.188,80.417 Z"
         id="path56" />
      <path
         d="m -116.684,111.184 c -40.295,-12.596 -81.728,-33.603 -124.147,4.768 -42.419,38.371 -69.087,71.984 -51.865,115.475 17.221,43.491 87.518,16.402 107.943,55.273 20.425,38.87 -24.453,74.148 -5.105,108.743 19.348,34.595 34.225,56.767 96.404,34.77 62.179,-21.996 56.446,-77.965 103.73,-110.739 C 57.56,286.7 108.718,237.635 38.512,150.086 -31.695,62.536 -76.389,123.779 -116.684,111.184 Z"
         id="path58" />
      <path
         d="m -111.917,131.046 c -32.91,-10.295 -66.749,-27.467 -101.393,3.897 -34.643,31.365 -56.424,58.84 -42.358,94.389 14.065,35.549 71.477,13.407 88.158,45.179 16.682,31.772 -19.971,60.609 -4.17,88.886 15.803,28.277 27.953,46.4 78.735,28.42 50.782,-17.979 46.1,-63.727 84.718,-90.516 38.617,-26.79 80.398,-66.895 23.06,-138.457 -57.339,-71.562 -93.841,-21.503 -126.75,-31.798 z"
         id="path60" />
      <path
         d="m -102.775,145.406 c -26.718,-8.36 -54.191,-22.305 -82.318,3.165 -28.127,25.47 -45.81,47.78 -34.39,76.649 11.419,28.868 58.03,10.887 71.574,36.688 13.544,25.8 -16.214,49.217 -3.385,72.18 12.83,22.963 22.694,37.68 63.923,23.08 41.229,-14.6 37.428,-51.75 68.78,-73.505 C 12.762,261.908 46.684,229.34 0.132,171.228 -46.421,113.116 -76.056,153.766 -102.775,145.406 Z"
         id="path62" />
    </g>
  </g>
</svg>
